<svg width="50" height="50" viewBox="0 0 50 50" fill="none" xmlns="http://www.w3.org/2000/svg">
  <path d="M40 3H10C6.13401 3 3 6.13401 3 10V30C3 33.866 6.13401 37 10 37H22L25 45L28 37H40C43.866 37 47 33.866 47 30V10C47 6.13401 43.866 3 40 3Z" fill="#673AB7"/>
  <path d="M15 22C17.2091 22 19 20.2091 19 18C19 15.7909 17.2091 14 15 14C12.7909 14 11 15.7909 11 18C11 20.2091 12.7909 22 15 22Z" fill="white"/>
  <path d="M25 22C27.2091 22 29 20.2091 29 18C29 15.7909 27.2091 14 25 14C22.7909 14 21 15.7909 21 18C21 20.2091 22.7909 22 25 22Z" fill="white"/>
  <path d="M35 22C37.2091 22 39 20.2091 39 18C39 15.7909 37.2091 14 35 14C32.7909 14 31 15.7909 31 18C31 20.2091 32.7909 22 35 22Z" fill="white"/>
</svg> 